<?xml version="1.0" encoding="utf-8"?>
<!-- Generator: Adobe Illustrator 25.2.1, SVG Export Plug-In . SVG Version: 6.00 Build 0)  -->
<svg version="1.1" id="Layer_1" xmlns="http://www.w3.org/2000/svg" xmlns:xlink="http://www.w3.org/1999/xlink" x="0px" y="0px"
	 viewBox="0 0 576 300.5" style="enable-background:new 0 0 576 300.5;" xml:space="preserve">
<style type="text/css">
	.st0{fill:#717074;}
	.st1{fill:#0091DA;}
	.st2{fill:#1D428A;}
	.st3{fill:#7F35B2;}
</style>
<path class="st0" d="M199.8,199L186,167.7h-4.5l16.1,36.4h4.5l16.1-36.4h-4.5L199.8,199z M255,176.6v27.5h4.1v-36.4H255L241.5,193
	l-13.5-25.4h-4.1v36.4h4.1v-27.5l13.5,25.4L255,176.6z M293.9,198.8l-7.5-22.1H283l-7.5,22.1l-6.8-22.1h-4.2l9.2,27.4h3.8l7.4-21.9
	l7.3,21.9h3.8l9.2-27.4h-4.2L293.9,198.8z M316.3,204.7c1.9,0,3.8-0.4,5.5-1.3c1.8-0.9,3.2-2.1,4.1-3.6v4.3h4v-16.7
	c0-3.4-0.9-6.2-2.8-8.2c-1.9-2.1-4.7-3.1-8.3-3.1c-3,0-6.3,0.9-9.9,2.7l1.6,3.2c1.5-0.8,2.9-1.4,4.2-1.8c1.3-0.4,2.6-0.7,3.8-0.7
	c2.7,0,4.6,0.8,5.7,2.3c1.1,1.5,1.7,3.4,1.7,5.6v1c-3.2-1-6.1-1.5-8.9-1.5c-1.9,0-3.7,0.4-5.4,1.1c-1.6,0.8-3,1.8-3.9,3.2
	c-1,1.4-1.5,3-1.5,4.7c0,2.7,0.9,4.8,2.8,6.4C311,203.9,313.4,204.7,316.3,204.7z M312.4,191.8c1.5-1.1,3.2-1.6,5.3-1.6
	c2.8,0,5.6,0.4,8.3,1.1v4.2c-0.5,1.8-1.6,3.2-3.4,4.2c-1.7,1-3.6,1.5-5.6,1.5s-3.6-0.5-4.9-1.5s-1.9-2.3-1.9-3.9
	C310.2,194.2,310.9,192.8,312.4,191.8z M341.3,188.8c0-1.8,0.5-3.3,1.4-4.7c0.9-1.4,2.2-2.5,3.8-3.3c1.6-0.8,3.4-1.2,5.5-1.2V176
	c-2.5,0-4.7,0.5-6.6,1.6c-1.9,1.1-3.2,2.5-4,4.4v-5.4h-4v27.4h4V188.8z M372.2,200.2c-1.6,0.6-3.3,1-4.9,1c-2.6,0-4.9-0.9-6.7-2.6
	s-2.8-4-3.1-6.7H380c0-4.8-1.1-8.7-3.4-11.6c-2.3-2.9-5.5-4.3-9.6-4.3c-2.4,0-4.7,0.6-6.8,1.9c-2.1,1.2-3.7,3-4.9,5.1
	c-1.2,2.2-1.8,4.6-1.8,7.3c0,2.7,0.6,5.2,1.9,7.4c1.3,2.2,3,3.9,5.1,5.2c2.1,1.2,4.4,1.9,6.8,1.9c2,0,4-0.4,6.1-1.2
	c2.1-0.8,3.7-1.8,4.9-3.1l-2.4-2.6C375.1,198.8,373.9,199.6,372.2,200.2z M360.8,182c1.8-1.6,3.9-2.4,6.4-2.4c2.6,0,4.7,0.8,6.2,2.4
	c1.5,1.6,2.4,3.7,2.7,6.3h-18.4C358,185.7,359.1,183.6,360.8,182z M48.4,232.9c2.2-1.4,4.6-2,7.2-2c1.9,0,3.8,0.4,5.6,1.2
	s3.3,1.9,4.7,3.4l2.8-2.9c-1.7-1.8-3.7-3.1-6-4.1c-2.3-1-4.6-1.5-7.1-1.5c-3.3,0-6.4,0.9-9.2,2.6c-2.9,1.7-5.2,4-6.9,6.9
	c-1.7,2.9-2.5,6-2.5,9.4c0,3.4,0.8,6.5,2.5,9.4s4,5.2,6.9,6.9c2.9,1.7,6,2.6,9.2,2.6c2.5,0,4.8-0.5,7.1-1.5c2.3-1,4.3-2.3,6-4.1
	l-2.8-2.9c-1.3,1.4-2.9,2.6-4.7,3.4c-1.8,0.8-3.6,1.2-5.6,1.2c-2.6,0-5-0.7-7.2-2.1c-2.2-1.4-4-3.2-5.3-5.5c-1.3-2.3-2-4.8-2-7.5
	c0-2.6,0.7-5.1,2-7.4C44.5,236.1,46.2,234.2,48.4,232.9z M85,236c-3,0-6.3,0.9-9.9,2.7l1.6,3.2c1.5-0.8,2.9-1.4,4.2-1.8
	c1.3-0.4,2.6-0.7,3.8-0.7c2.7,0,4.6,0.8,5.7,2.3c1.1,1.5,1.7,3.4,1.7,5.6v1c-3.2-1-6.1-1.5-8.9-1.5c-1.9,0-3.7,0.4-5.4,1.1
	c-1.6,0.8-3,1.8-3.9,3.2c-1,1.4-1.5,3-1.5,4.7c0,2.7,0.9,4.8,2.8,6.4c1.9,1.6,4.3,2.4,7.2,2.4c1.9,0,3.8-0.4,5.5-1.3
	c1.8-0.9,3.2-2.1,4.1-3.6v4.3h4v-16.7c0-3.4-0.9-6.2-2.8-8.2C91.4,237.1,88.6,236,85,236z M92.1,255.5c-0.5,1.8-1.6,3.2-3.4,4.2
	c-1.7,1-3.6,1.5-5.6,1.5c-2,0-3.6-0.5-4.9-1.5c-1.3-1-1.9-2.3-1.9-3.9c0-1.6,0.7-3,2.2-4c1.5-1.1,3.2-1.6,5.3-1.6
	c2.8,0,5.6,0.4,8.3,1.1V255.5z M107.5,242v-5.4h-4v27.4h4v-15.3c0-1.8,0.5-3.3,1.4-4.7c0.9-1.4,2.2-2.5,3.8-3.3
	c1.6-0.8,3.4-1.2,5.5-1.2V236c-2.5,0-4.7,0.5-6.6,1.6C109.6,238.7,108.3,240.2,107.5,242z M143.2,237.9c-1.9-1.2-4.1-1.8-6.4-1.8
	c-2.2,0-4.1,0.5-5.8,1.5s-3.1,2.4-4.2,4.3V227h-4v37h4v-5.1c1.1,1.8,2.4,3.3,4.2,4.3c1.7,1,3.6,1.5,5.8,1.5c2.4,0,4.5-0.6,6.4-1.8
	s3.4-2.9,4.5-5.1c1.1-2.2,1.6-4.7,1.6-7.4c0-2.8-0.5-5.2-1.6-7.4C146.6,240.8,145.1,239.1,143.2,237.9z M144,255.9
	c-0.8,1.6-1.9,2.9-3.3,3.8c-1.4,0.9-3,1.4-4.7,1.4s-3.4-0.5-4.8-1.4c-1.4-0.9-2.5-2.2-3.3-3.8c-0.8-1.6-1.2-3.5-1.2-5.6
	s0.4-3.9,1.2-5.6c0.8-1.6,1.9-2.9,3.3-3.8c1.4-0.9,3-1.4,4.8-1.4s3.3,0.5,4.7,1.4c1.4,0.9,2.5,2.2,3.3,3.8c0.8,1.6,1.2,3.5,1.2,5.6
	S144.8,254.3,144,255.9z M174.6,238c-2.2-1.3-4.5-1.9-7-1.9s-4.9,0.6-7.1,1.9c-2.2,1.3-3.9,3-5.2,5.2c-1.3,2.2-1.9,4.6-1.9,7.2
	s0.6,5,1.9,7.2c1.3,2.2,3,4,5.2,5.2c2.2,1.3,4.5,1.9,7.1,1.9s4.9-0.6,7-1.9c2.2-1.3,3.9-3,5.1-5.2c1.3-2.2,1.9-4.6,1.9-7.2
	s-0.6-5-1.9-7.2C178.4,241,176.7,239.3,174.6,238z M176.1,255.7c-0.9,1.7-2.1,3-3.6,3.9c-1.5,1-3.2,1.5-5,1.5c-1.8,0-3.5-0.5-5-1.5
	c-1.5-1-2.8-2.3-3.7-3.9c-0.9-1.7-1.4-3.5-1.4-5.4s0.5-3.7,1.4-5.4s2.1-3,3.7-3.9c1.5-1,3.2-1.5,5-1.5c1.8,0,3.5,0.5,5,1.5
	c1.5,1,2.7,2.3,3.6,3.9c0.9,1.6,1.4,3.4,1.4,5.4S177,254.1,176.1,255.7z M205.7,237.4c-1.6-0.9-3.3-1.3-5.4-1.3
	c-1.9,0-3.7,0.5-5.4,1.4c-1.6,0.9-2.8,2.1-3.7,3.6v-4.3h-4v27.4h4v-17.4c0-1.3,0.4-2.4,1.1-3.5c0.8-1.1,1.8-1.9,3.1-2.6
	c1.3-0.6,2.7-1,4.2-1c2,0,3.7,0.7,4.9,2.1c1.3,1.4,1.9,3.2,1.9,5.5v16.9h4v-17.4c0-2.1-0.4-3.9-1.3-5.5
	C208.5,239.5,207.2,238.2,205.7,237.4z M256.5,244.7c1.7-1,3-2.2,3.9-3.4c0.9-1.2,1.3-2.8,1.3-4.6c0-1.7-0.4-3.3-1.3-4.7
	c-0.8-1.4-2-2.5-3.6-3.2c-1.5-0.8-3.3-1.2-5.2-1.2h-16.7v36.4h17.3c2.1,0,3.9-0.4,5.6-1.3c1.6-0.8,2.9-2,3.8-3.6
	c0.9-1.5,1.4-3.2,1.4-5.1c0-2-0.6-3.8-1.7-5.4C260.2,247.1,258.6,245.8,256.5,244.7z M239.1,231.4h11.5c2,0,3.7,0.5,5,1.6
	c1.3,1.1,1.9,2.5,1.9,4.2c0,1.7-0.6,3.1-1.9,4.2c-1.3,1.1-2.9,1.6-5,1.6h-11.5V231.4z M256.8,258.4c-1.4,1.3-3.3,1.9-5.5,1.9h-12.1
	v-13.5h12.1c2.3,0,4.1,0.6,5.5,1.9c1.4,1.3,2.1,2.9,2.1,4.8C258.9,255.6,258.2,257.2,256.8,258.4z M270.3,264.1h4v-37h-4V264.1z
	 M292.2,236c-3,0-6.3,0.9-9.9,2.7l1.6,3.2c1.5-0.8,2.9-1.4,4.2-1.8c1.3-0.4,2.6-0.7,3.8-0.7c2.7,0,4.6,0.8,5.7,2.3s1.7,3.4,1.7,5.6
	v1c-3.2-1-6.1-1.5-8.9-1.5c-1.9,0-3.7,0.4-5.4,1.1c-1.6,0.8-3,1.8-3.9,3.2c-1,1.4-1.5,3-1.5,4.7c0,2.7,0.9,4.8,2.8,6.4
	c1.9,1.6,4.3,2.4,7.2,2.4c1.9,0,3.8-0.4,5.5-1.3c1.8-0.9,3.2-2.1,4.1-3.6v4.3h4v-16.7c0-3.4-0.9-6.2-2.8-8.2
	C298.6,237.1,295.8,236,292.2,236z M299.3,255.5c-0.5,1.8-1.6,3.2-3.4,4.2c-1.7,1-3.6,1.5-5.6,1.5c-2,0-3.6-0.5-4.9-1.5
	c-1.3-1-1.9-2.3-1.9-3.9c0-1.6,0.7-3,2.2-4c1.5-1.1,3.2-1.6,5.3-1.6c2.8,0,5.6,0.4,8.3,1.1V255.5z M326.7,260.3
	c-1.2,0.6-2.5,0.9-3.9,0.9c-1.8,0-3.5-0.5-5-1.5c-1.5-1-2.8-2.3-3.7-3.9c-0.9-1.6-1.4-3.4-1.4-5.4c0-1.9,0.5-3.7,1.4-5.4
	c0.9-1.7,2.1-3,3.7-3.9c1.5-1,3.2-1.5,5-1.5c1.3,0,2.6,0.3,3.8,0.8c1.2,0.6,2.3,1.3,3.2,2.3l2.8-2.7c-1.3-1.3-2.8-2.3-4.5-3
	c-1.7-0.7-3.4-1.1-5.3-1.1c-2.5,0-4.9,0.7-7,2c-2.2,1.3-3.9,3.1-5.2,5.2c-1.3,2.2-1.9,4.6-1.9,7.1c0,2.5,0.6,4.9,1.9,7.1
	c1.3,2.2,3,4,5.2,5.3c2.2,1.3,4.5,2,7,2c1.9,0,3.7-0.4,5.4-1.1c1.7-0.7,3.2-1.8,4.5-3.1l-2.8-2.7C329.1,258.9,328,259.7,326.7,260.3
	z M356.3,236.7l-15,15.2V227h-4v37h4v-7.3l4.9-4.9l9.5,12.1h5L349,249.2l12.3-12.6H356.3z M390.8,232.9c2.2-1.4,4.6-2,7.2-2
	c1.9,0,3.8,0.4,5.6,1.2c1.8,0.8,3.3,1.9,4.7,3.4l2.8-2.9c-1.7-1.8-3.7-3.1-6-4.1c-2.3-1-4.6-1.5-7.1-1.5c-3.3,0-6.4,0.9-9.2,2.6
	c-2.9,1.7-5.2,4-6.9,6.9c-1.7,2.9-2.5,6-2.5,9.4c0,3.4,0.8,6.5,2.5,9.4c1.7,2.9,4,5.2,6.9,6.9c2.9,1.7,6,2.6,9.2,2.6
	c2.5,0,4.8-0.5,7.1-1.5c2.3-1,4.3-2.3,6-4.1l-2.8-2.9c-1.3,1.4-2.9,2.6-4.7,3.4c-1.8,0.8-3.6,1.2-5.6,1.2c-2.6,0-5-0.7-7.2-2.1
	s-4-3.2-5.3-5.5s-2-4.8-2-7.5c0-2.6,0.7-5.1,2-7.4C386.9,236.1,388.6,234.2,390.8,232.9z M416.2,264.1h4v-37h-4V264.1z M447.2,238
	c-2.2-1.3-4.5-1.9-7-1.9s-4.9,0.6-7.1,1.9c-2.2,1.3-3.9,3-5.2,5.2c-1.3,2.2-1.9,4.6-1.9,7.2s0.6,5,1.9,7.2c1.3,2.2,3,4,5.2,5.2
	c2.2,1.3,4.5,1.9,7.1,1.9s4.9-0.6,7-1.9c2.2-1.3,3.9-3,5.1-5.2c1.3-2.2,1.9-4.6,1.9-7.2s-0.6-5-1.9-7.2
	C451.1,241,449.4,239.3,447.2,238z M448.8,255.7c-0.9,1.7-2.1,3-3.6,3.9c-1.5,1-3.2,1.5-5,1.5c-1.8,0-3.5-0.5-5-1.5
	c-1.5-1-2.8-2.3-3.7-3.9c-0.9-1.7-1.4-3.5-1.4-5.4s0.5-3.7,1.4-5.4c0.9-1.6,2.1-3,3.7-3.9c1.5-1,3.2-1.5,5-1.5c1.8,0,3.5,0.5,5,1.5
	c1.5,1,2.7,2.3,3.6,3.9c0.9,1.6,1.4,3.4,1.4,5.4S449.7,254.1,448.8,255.7z M478.8,254.1c0,1.3-0.4,2.4-1.1,3.5
	c-0.8,1.1-1.8,1.9-3.1,2.6s-2.7,1-4.2,1c-2,0-3.7-0.7-4.9-2.1c-1.3-1.4-1.9-3.2-1.9-5.5v-16.9h-4v17.4c0,2.1,0.4,3.9,1.3,5.5
	c0.9,1.6,2.1,2.9,3.6,3.7s3.3,1.3,5.4,1.3c1.9,0,3.7-0.5,5.4-1.4c1.6-0.9,2.8-2.1,3.7-3.6v4.3h4v-27.4h-4V254.1z M511.4,241.8
	c-1.1-1.8-2.4-3.3-4.2-4.3c-1.7-1-3.6-1.5-5.8-1.5c-2.4,0-4.5,0.6-6.4,1.8c-1.9,1.2-3.4,2.9-4.5,5.1c-1.1,2.2-1.6,4.6-1.6,7.4
	c0,2.8,0.5,5.2,1.6,7.4c1.1,2.2,2.6,3.9,4.5,5.1c1.9,1.2,4.1,1.8,6.4,1.8c2.2,0,4.1-0.5,5.8-1.5c1.7-1,3.1-2.4,4.2-4.3v5.1h4v-37h-4
	V241.8z M510.2,255.9c-0.8,1.6-1.9,2.9-3.3,3.8c-1.4,0.9-3,1.4-4.8,1.4c-1.8,0-3.3-0.5-4.7-1.4c-1.4-0.9-2.5-2.2-3.3-3.8
	c-0.8-1.6-1.2-3.5-1.2-5.6s0.4-3.9,1.2-5.6c0.8-1.6,1.9-2.9,3.3-3.8c1.4-0.9,3-1.4,4.7-1.4c1.8,0,3.4,0.5,4.8,1.4
	c1.4,0.9,2.5,2.2,3.3,3.8c0.8,1.6,1.2,3.5,1.2,5.6S511,254.3,510.2,255.9z M521.8,230h2.2v6.3h2.2V230h2.2v-2.1h-6.6V230z
	 M536.9,227.9l-2.5,4.2l-2.5-4.2h-2.2v8.4h2.2v-4.7l2.5,4.2l2.5-4.2v4.7h2.2v-8.4H536.9z"/>
<path class="st1" d="M236.3,93.8V46.9l-4.3-4.2v51.1c0,7,2.5,14.2,7.4,21.2c4.5,6.2,9.8,11.7,15.8,16.4c6.4,5.1,13.2,9.6,20.4,13.4
	V140C264.6,133.8,236.3,115.7,236.3,93.8z M321.7,46.9v46.9c0,1.9-0.2,3.8-0.6,5.6c1.1,1.2,2,2.5,2.9,3.9c0.2,0,0.3,0.1,0.5,0.1
	c1-3.1,1.5-6.3,1.5-9.6V42.7L321.7,46.9z"/>
<path class="st2" d="M271.8,123c-2.1-1.4-4.2-3-6.4-4.8c-6.4-5.2-11.1-10.4-13.8-15.2l24.1-13.9l2.6-1.5l0.1,0l3.5-2l0.1,0l0.5-0.3
	l26.9-15.5v22.6c1.5,0.4,2.9,0.9,4.3,1.6l0,0V54.8v-3.9h-69.2v43c0,8.3,6.5,18.2,18.3,27.7c3,2.5,6.1,4.6,8.8,6.5
	c0-0.5-0.1-1-0.1-1.5C271.4,125.3,271.6,124.1,271.8,123z M248.7,93.8V55.1h60.6v3.8v5.7l-14.6,8.5l-12.3,7.1l-1.2,0.7l-5.5,3.2
	l-0.5,0.3l-0.1,0l-25.3,14.6C249.1,97.4,248.7,95.6,248.7,93.8z"/>
<path class="st3" d="M320.8,38.4h-83.6l4.5,4.3h74.7L320.8,38.4z M333,124.5c0-7.8-6.3-14.2-14.1-14.3c-0.1-0.3-0.2-0.6-0.3-0.8
	c-0.2-0.5-0.4-0.9-0.7-1.4c-1-2-2.5-3.8-4.2-5.2c-0.6-0.4-1.1-0.9-1.7-1.2c-7.8-4.8-18-2.3-22.7,5.4c-1.5,2.4-2.3,5.2-2.4,8.1
	c-4.7,1.8-7.8,6.4-7.8,11.4c0,0.3,0,0.7,0,1c0.1,1.5,0.5,3,1.2,4.3c1.3,2.6,3.4,4.7,6,5.8c1.6,0.7,3.3,1.1,5.1,1.1h27.4
	C326.6,138.8,333,132.4,333,124.5L333,124.5L333,124.5z M318.7,134.5h-27.4h0c-4.4,0-8-3.6-8-8c0-3.7,2.5-6.9,6.1-7.8l1.8-0.4
	l-0.1-1.8c0-0.3,0-0.6,0-0.9c0-6.7,5.5-12.2,12.2-12.2c0.9,0,1.8,0.1,2.7,0.3c3.2,0.7,6,2.8,7.7,5.6c0.6,1,1,2.1,1.3,3.2
	c0,0.1,0.1,0.2,0.1,0.4l0.4,1.9l1.9-0.2c0.4,0,0.8-0.1,1.1-0.1c0.1,0,0.2,0,0.3,0c5.5,0.2,9.9,4.8,9.7,10.3
	C328.5,130.2,324.1,134.5,318.7,134.5L318.7,134.5z"/>
</svg>
